<svg xmlns="http://www.w3.org/2000/svg" width="75" height="75" viewBox="0 0 75 75">
  <g id="contact-us-icon" transform="translate(-113)">
    <path id="Path_962" data-name="Path 962" d="M37.5,0A37.5,37.5,0,1,1,0,37.5,37.5,37.5,0,0,1,37.5,0Z" transform="translate(113)" fill="#fff"/>
    <g id="telephone" transform="translate(133.5 21)">
      <path id="Path_974" data-name="Path 974" d="M443.766,110.657a.645.645,0,1,1-.645-.645A.644.644,0,0,1,443.766,110.657Zm0,0" transform="translate(-413.49 -102.922)" fill="#2a2d74"/>
      <path id="Path_975" data-name="Path 975" d="M383.758,110.657a.645.645,0,1,1-.645-.645A.644.644,0,0,1,383.758,110.657Zm0,0" transform="translate(-357.35 -102.922)" fill="#2a2d74"/>
      <path id="Path_976" data-name="Path 976" d="M323.754,110.657a.645.645,0,1,1-.645-.645A.645.645,0,0,1,323.754,110.657Zm0,0" transform="translate(-301.213 -102.922)" fill="#2a2d74"/>
      <path id="Path_977" data-name="Path 977" d="M280.2,0a7.744,7.744,0,0,0-7.735,7.735,7.653,7.653,0,0,0,1.322,4.311l-1.289,3.865a.645.645,0,0,0,.9.78l3.729-1.865a7.636,7.636,0,0,0,3.073.644A7.735,7.735,0,1,0,280.2,0Zm0,14.181a6.381,6.381,0,0,1-2.8-.649.646.646,0,0,0-.57,0l-2.613,1.307.9-2.7a.645.645,0,0,0-.093-.587,6.383,6.383,0,0,1-1.265-3.822,6.446,6.446,0,1,1,6.446,6.446Zm0,0" transform="translate(-254.432)" fill="#2a2d74"/>
      <path id="Path_978" data-name="Path 978" d="M179.742,312.672a.645.645,0,1,1-.645-.645A.645.645,0,0,1,179.742,312.672Zm0,0" transform="translate(-166.483 -291.916)" fill="#2a2d74"/>
      <path id="Path_979" data-name="Path 979" d="M22.86,70.258a.645.645,0,0,0-.912,0l-3.09,3.089a1.3,1.3,0,0,1-1.61.213,24.466,24.466,0,0,1-2.061-1.473.645.645,0,1,0-.8,1.009,25.8,25.8,0,0,0,2.17,1.55,2.6,2.6,0,0,0,3.215-.388L22.4,71.626l6.053,6.053-2.385,2.384A5.189,5.189,0,0,1,20.311,81.2,36.192,36.192,0,0,1,2.257,63.137,5.24,5.24,0,0,1,3.34,57.26l2.349-2.35,6.053,6.053L9.109,63.6a2.6,2.6,0,0,0-.387,3.216c.456.714.952,1.412,1.476,2.077a.644.644,0,1,0,1.012-.8c-.5-.631-.969-1.3-1.4-1.973a1.3,1.3,0,0,1,.212-1.61l3.089-3.089a.645.645,0,0,0,0-.912L6.145,53.543a.645.645,0,0,0-.912,0L2.428,56.349a6.534,6.534,0,0,0-1.342,7.33A37.546,37.546,0,0,0,19.78,82.371a6.485,6.485,0,0,0,7.2-1.4l2.841-2.84a.645.645,0,0,0,0-.912Zm0,0" transform="translate(0 -49.916)" fill="#2a2d74"/>
    </g>
  </g>
</svg>
