<svg xmlns="http://www.w3.org/2000/svg" width="75" height="75" viewBox="0 0 75 75">
  <g id="on-ramp-icon" transform="translate(-0.5)">
    <path id="Path_37" data-name="Path 37" d="M37.5,0A37.5,37.5,0,1,1,0,37.5,37.5,37.5,0,0,1,37.5,0Z" transform="translate(0.5)" fill="#2a2d74"/>
    <g id="weight" transform="translate(-33.06 19.48)">
      <g id="Group_1316" data-name="Group 1316" transform="translate(63.477 2.857)">
        <g id="Group_1315" data-name="Group 1315" transform="translate(0)">
          <path id="Path_989" data-name="Path 989" d="M151.873,40.593a7.884,7.884,0,0,0-6.014,12.983.7.7,0,0,0,.722.224,18.543,18.543,0,0,1,4.854-.583c.142,0,.284,0,.426,0h.024q.213,0,.426,0a18.538,18.538,0,0,1,4.853.583.7.7,0,0,0,.722-.223,7.884,7.884,0,0,0-6.013-12.983Zm5.209,11.732a20.509,20.509,0,0,0-4.771-.516q-.219,0-.438,0t-.438,0a20.512,20.512,0,0,0-4.772.516,6.477,6.477,0,1,1,10.418,0Z" transform="translate(-143.989 -40.593)" fill="#fff"/>
        </g>
      </g>
      <g id="Group_1318" data-name="Group 1318" transform="translate(57.381)">
        <g id="Group_1317" data-name="Group 1317" transform="translate(0)">
          <path id="Path_990" data-name="Path 990" d="M85.309,26.486c-.332-4.622-1.944-8.023-4.792-10.123a10.742,10.742,0,1,0-18.31,0c-2.848,2.1-4.459,5.5-4.792,10.123a8.1,8.1,0,0,0,1.879,6.359,9.444,9.444,0,0,0,4.9,2.585,27.8,27.8,0,0,0,6.385.61c.252,0,.515,0,.78-.006s.528.006.78.006a27.8,27.8,0,0,0,6.385-.61,9.446,9.446,0,0,0,4.9-2.585A8.1,8.1,0,0,0,85.309,26.486Zm-2.909,5.4c-1.744,1.873-5,2.746-10.258,2.746-.249,0-.508,0-.77-.006h-.02c-.262,0-.521.006-.77.006-5.255,0-8.514-.873-10.258-2.746a6.675,6.675,0,0,1-1.5-5.3c.321-4.464,1.914-7.641,4.735-9.442a.7.7,0,0,0,.195-1,9.334,9.334,0,1,1,15.226,0,.7.7,0,0,0,.195,1c2.821,1.8,4.414,4.978,4.735,9.442A6.676,6.676,0,0,1,82.4,31.885Z" transform="translate(-57.381)" fill="#fff"/>
        </g>
      </g>
      <g id="Group_1320" data-name="Group 1320" transform="translate(80.537 23.678)">
        <g id="Group_1319" data-name="Group 1319" transform="translate(0)">
          <path id="Path_991" data-name="Path 991" d="M387.765,337.021c-.007-.028-.014-.055-.021-.083l-.005-.021a.7.7,0,0,0-1.362.357l.006.024.014.056a.7.7,0,0,0,1.368-.333Z" transform="translate(-386.353 -336.392)" fill="#fff"/>
        </g>
      </g>
      <g id="Group_1322" data-name="Group 1322" transform="translate(77.323 26.341)">
        <g id="Group_1321" data-name="Group 1321" transform="translate(0)">
          <path id="Path_992" data-name="Path 992" d="M345.735,374.878a.7.7,0,0,0-1.4.1,3.562,3.562,0,0,1-.676,2.81,4.952,4.952,0,0,1-2.423,1.163.7.7,0,1,0,.33,1.369,6.272,6.272,0,0,0,3.11-1.558A4.841,4.841,0,0,0,345.735,374.878Z" transform="translate(-340.692 -374.225)" fill="#fff"/>
        </g>
      </g>
      <g id="Group_1324" data-name="Group 1324" transform="translate(71.001 20.47)">
        <g id="Group_1323" data-name="Group 1323" transform="translate(0)">
          <path id="Path_993" data-name="Path 993" d="M256.409,294.161h-2.417a.7.7,0,1,0,0,1.408h1.6a1.6,1.6,0,0,1-1.6,1.009,1.96,1.96,0,0,1-1.713-2.133,2.123,2.123,0,0,1,1.139-2.047,2.007,2.007,0,0,1,2.145.345.7.7,0,1,0,.9-1.079,3.4,3.4,0,0,0-3.644-.542,3.519,3.519,0,0,0-1.951,3.323,3.355,3.355,0,0,0,3.121,3.541,2.986,2.986,0,0,0,3.121-3.121A.7.7,0,0,0,256.409,294.161Z" transform="translate(-250.871 -290.815)" fill="#fff"/>
        </g>
      </g>
      <g id="Group_1326" data-name="Group 1326" transform="translate(65.481 20.474)">
        <g id="Group_1325" data-name="Group 1325" transform="translate(0)">
          <path id="Path_994" data-name="Path 994" d="M177.188,296.981l-1.752-3.051,1.53-1.858a.7.7,0,1,0-1.087-.895l-1.961,2.381.032-1.973a.7.7,0,0,0-1.408-.023l-.066,4v0l-.029,1.759a.7.7,0,0,0,.692.715h.012a.7.7,0,0,0,.7-.692l.025-1.526.6-.726,1.488,2.591a.7.7,0,0,0,1.221-.7Z" transform="translate(-172.449 -290.869)" fill="#fff"/>
        </g>
      </g>
    </g>
  </g>
</svg>
