<svg xmlns="http://www.w3.org/2000/svg" width="75" height="75" viewBox="0 0 75 75">
  <g id="open-gym-icon" transform="translate(-0.5)">
    <path id="Path_37" data-name="Path 37" d="M37.5,0A37.5,37.5,0,1,1,0,37.5,37.5,37.5,0,0,1,37.5,0Z" transform="translate(0.5)" fill="#2a2d74"/>
    <g id="barbell" transform="translate(22.5 21)">
      <path id="Path_995" data-name="Path 995" d="M29.532,12.149H25.354a.644.644,0,0,0-.645.645v3.5H23q0-.731,0-1.463c.005-1.407.01-2.862-.006-4.291a4.618,4.618,0,0,0-4.566-4.69h-.6a3.569,3.569,0,1,0-5.487,0h-.6A4.619,4.619,0,0,0,7.184,10.54c-.016,1.428-.011,2.883-.006,4.29q0,.732,0,1.462H5.467v-3.5a.644.644,0,0,0-.645-.645H.645A.644.644,0,0,0,0,12.794V21.08a.644.644,0,0,0,.645.645H4.823a.644.644,0,0,0,.645-.645v-3.5h5.257V22a.645.645,0,0,0,1.289,0V17.581h6.151V30.5a1.216,1.216,0,0,1-2.431,0V21.514a.645.645,0,1,0-1.289,0V30.5a1.216,1.216,0,0,1-2.431,0V27.156a.645.645,0,1,0-1.289,0V30.5a2.5,2.5,0,0,0,4.365,1.676A2.5,2.5,0,0,0,19.453,30.5V17.581H24.71v3.5a.645.645,0,0,0,.645.645h4.178a.645.645,0,0,0,.645-.645V12.794a.644.644,0,0,0-.645-.645ZM4.178,20.435H1.29v-7H4.178ZM12.809,3.569a2.28,2.28,0,1,1,2.281,2.28h0a2.282,2.282,0,0,1-2.279-2.28ZM8.471,16.292q0-.733,0-1.467c-.005-1.4-.01-2.853.006-4.271a3.3,3.3,0,0,1,3.277-3.417h6.679A3.3,3.3,0,0,1,21.7,10.554c.016,1.418.011,2.869.006,4.272q0,.734,0,1.467H19.453V12.411a.645.645,0,1,0-1.289,0v3.881H12.013V12.411a.645.645,0,1,0-1.289,0v3.881Zm20.416,4.143H26v-7h2.889Zm0,0" transform="translate(0 0)" fill="#fff" fill-rule="evenodd"/>
      <path id="Path_996" data-name="Path 996" d="M167.02,372.625a.645.645,0,1,0-.645-.645A.646.646,0,0,0,167.02,372.625Zm0,0" transform="translate(-155.651 -347.402)" fill="#fff" fill-rule="evenodd"/>
    </g>
  </g>
</svg>
