<svg xmlns="http://www.w3.org/2000/svg" width="75" height="75" viewBox="0 0 75 75">
  <g id="pricing-icon" transform="translate(-113)">
    <path id="Path_962" data-name="Path 962" d="M37.5,0A37.5,37.5,0,1,1,0,37.5,37.5,37.5,0,0,1,37.5,0Z" transform="translate(113)" fill="#fff"/>
    <g id="coins" transform="translate(130 -24)">
      <path id="Path_972" data-name="Path 972" d="M246.762,386a.762.762,0,1,0,.762.762A.762.762,0,0,0,246.762,386Z" transform="translate(-227.257 -314.095)" fill="#2a2d74"/>
      <path id="Path_973" data-name="Path 973" d="M35.74,47.171A18.931,18.931,0,0,0,28.876,46a18.931,18.931,0,0,0-6.864,1.171,6.762,6.762,0,0,0-2.508,1.6A6.762,6.762,0,0,0,17,47.171,18.93,18.93,0,0,0,10.133,46,18.931,18.931,0,0,0,3.27,47.171C1.161,48.02,0,49.228,0,50.571V68.857c0,1.344,1.161,2.551,3.27,3.4A18.53,18.53,0,0,0,9.6,73.422v.007C9.6,76.035,13.858,78,19.5,78s9.9-1.965,9.9-4.571v-.007a18.53,18.53,0,0,0,6.33-1.164c2.108-.849,3.27-2.057,3.27-3.4V50.571C39.01,49.228,37.848,48.02,35.74,47.171Zm1.746,17.115c0,.65-.887,1.412-2.315,1.987a17.224,17.224,0,0,1-5.761,1.053v-3.04s0,0,0-.007a18.529,18.529,0,0,0,6.331-1.164,8.3,8.3,0,0,0,1.746-.933v2.1ZM18.743,55.143c0,.65-.887,1.412-2.315,1.987a17.642,17.642,0,0,1-6.294,1.061A17.642,17.642,0,0,1,3.839,57.13c-1.428-.575-2.315-1.336-2.315-1.987v-2.1a8.3,8.3,0,0,0,1.746.933,18.931,18.931,0,0,0,6.864,1.171A18.931,18.931,0,0,0,17,53.972a8.3,8.3,0,0,0,1.746-.933ZM3.27,58.543a18.931,18.931,0,0,0,6.864,1.171A18.931,18.931,0,0,0,17,58.543a8.3,8.3,0,0,0,1.746-.933v2.117a18.528,18.528,0,0,0-5.39.929,6.556,6.556,0,0,0-3.237,2.105A17.63,17.63,0,0,1,3.839,61.7c-1.428-.575-2.315-1.336-2.315-1.987v-2.1A8.3,8.3,0,0,0,3.27,58.543ZM1.524,62.182a8.3,8.3,0,0,0,1.746.933A18.532,18.532,0,0,0,9.6,64.279s0,0,0,.007v3.04a17.223,17.223,0,0,1-5.761-1.053c-1.428-.575-2.315-1.336-2.315-1.987Zm9.681,1.73c.565-1.314,3.824-2.673,8.3-2.673S27.24,62.6,27.8,63.91a.943.943,0,0,1,.081.376c0,.67-.826,1.414-2.209,1.99A16.582,16.582,0,0,1,19.5,67.333a16.582,16.582,0,0,1-6.172-1.057c-1.383-.576-2.209-1.32-2.209-1.99A.941.941,0,0,1,11.2,63.911Zm26.281-4.2c0,.65-.887,1.412-2.315,1.987a17.629,17.629,0,0,1-6.276,1.06,6.557,6.557,0,0,0-3.237-2.105,18.526,18.526,0,0,0-5.39-.929V57.61a8.3,8.3,0,0,0,1.746.933,18.931,18.931,0,0,0,6.864,1.171,18.931,18.931,0,0,0,6.864-1.171,8.3,8.3,0,0,0,1.746-.933Zm0-4.571c0,.65-.887,1.412-2.315,1.987a17.642,17.642,0,0,1-6.294,1.061,17.642,17.642,0,0,1-6.294-1.061c-1.428-.575-2.315-1.336-2.315-1.987v-2.1a8.3,8.3,0,0,0,1.746.933,18.931,18.931,0,0,0,6.864,1.171,18.931,18.931,0,0,0,6.864-1.171,8.3,8.3,0,0,0,1.746-.933Zm-14.9-6.558a17.642,17.642,0,0,1,6.294-1.061,17.642,17.642,0,0,1,6.294,1.061c1.428.575,2.315,1.336,2.315,1.987s-.887,1.412-2.315,1.987a17.642,17.642,0,0,1-6.294,1.061,17.642,17.642,0,0,1-6.294-1.061c-1.428-.575-2.315-1.336-2.315-1.987S21.154,49.16,22.582,48.585Zm-18.743,0a17.642,17.642,0,0,1,6.294-1.061,17.642,17.642,0,0,1,6.294,1.061c1.428.575,2.315,1.336,2.315,1.987s-.887,1.412-2.315,1.987a17.642,17.642,0,0,1-6.294,1.061,17.642,17.642,0,0,1-6.294-1.061c-1.428-.575-2.315-1.336-2.315-1.987S2.411,49.16,3.839,48.585Zm0,22.26c-1.428-.575-2.315-1.336-2.315-1.987v-2.1a8.3,8.3,0,0,0,1.746.933A18.531,18.531,0,0,0,9.6,68.851V71.9A17.224,17.224,0,0,1,3.839,70.844Zm21.838,4.575A16.582,16.582,0,0,1,19.5,76.476a16.582,16.582,0,0,1-6.172-1.057c-1.383-.576-2.209-1.32-2.209-1.99v-2.06a6.709,6.709,0,0,0,.575.371A13.344,13.344,0,0,0,16.354,73.2a.774.774,0,0,0,.112.008.762.762,0,0,0,.11-1.516c-3.541-.52-5.452-1.851-5.452-2.84V66.791c1.724,1.262,4.769,2.066,8.381,2.066s6.656-.8,8.381-2.066v2.066c0,.989-1.911,2.32-5.452,2.84a.762.762,0,0,0,.11,1.516.774.774,0,0,0,.112-.008,13.343,13.343,0,0,0,4.656-1.464,6.722,6.722,0,0,0,.575-.371v2.06C27.886,74.1,27.06,74.843,25.677,75.419Zm9.494-4.575A17.224,17.224,0,0,1,29.41,71.9V68.851a18.531,18.531,0,0,0,6.33-1.164,8.3,8.3,0,0,0,1.746-.933v2.1C37.486,69.508,36.6,70.269,35.171,70.844Z" transform="translate(0)" fill="#2a2d74"/>
    </g>
  </g>
</svg>
