<svg xmlns="http://www.w3.org/2000/svg" width="70" height="70" viewBox="0 0 70 70">
  <g id="quote-icon" transform="translate(-747 -3719)">
    <circle id="Ellipse_11" data-name="Ellipse 11" cx="35" cy="35" r="35" transform="translate(747 3719)" fill="#2a2d74"/>
    <g id="Quotemarks-left" transform="translate(766 3743)">
      <path id="Path_38" data-name="Path 38" d="M42.867,17.589c-.063-.678-.015-2.52,1.75-5.082a.486.486,0,0,0-.056-.62c-.72-.72-1.165-1.174-1.477-1.491-.411-.419-.6-.61-.873-.859a.487.487,0,0,0-.646-.006,18.639,18.639,0,0,0-6,14.984c.29,3.979,3.192,6.867,6.9,6.867a6.9,6.9,0,0,0,.4-13.793Zm-.4,12.82c-3.185,0-5.679-2.509-5.931-5.964h0a17.774,17.774,0,0,1,5.343-13.882c.133.132.286.286.511.515.271.275.641.653,1.2,1.215-2.142,3.3-1.738,5.652-1.561,5.99a.5.5,0,0,0,.437.268,5.93,5.93,0,1,1,0,11.859Z" transform="translate(-18.245 -9.412)" fill="#fff"/>
      <path id="Path_39" data-name="Path 39" d="M7.35,17.589c-.063-.676-.017-2.517,1.75-5.082a.487.487,0,0,0-.057-.62c-.718-.718-1.163-1.172-1.475-1.489-.412-.42-.6-.611-.875-.861a.488.488,0,0,0-.646-.007,18.641,18.641,0,0,0-6,14.984h0c.291,3.978,3.193,6.866,6.9,6.866a6.9,6.9,0,0,0,.4-13.793Zm-.4,12.82c-3.184,0-5.68-2.509-5.932-5.965h0A17.776,17.776,0,0,1,6.363,10.563c.134.132.287.287.512.517.27.275.64.652,1.2,1.213-2.142,3.3-1.738,5.652-1.561,5.989a.5.5,0,0,0,.437.268,5.93,5.93,0,1,1,0,11.859Z" transform="translate(-0.001 -9.412)" fill="#fff"/>
    </g>
  </g>
</svg>
