<svg xmlns="http://www.w3.org/2000/svg" width="75" height="75" viewBox="0 0 75 75">
  <g id="schedule-icon" transform="translate(-113)">
    <path id="Path_962" data-name="Path 962" d="M37.5,0A37.5,37.5,0,1,1,0,37.5,37.5,37.5,0,0,1,37.5,0Z" transform="translate(113)" fill="#fff"/>
    <g id="XMLID_1156_" transform="translate(134 21)">
      <g id="XMLID_416_">
        <path id="XMLID_419_" d="M31.453,22.9V4.544a1.968,1.968,0,0,0-1.966-1.966H24.814V1.934a1.934,1.934,0,0,0-3.867,0v.645H10.506V1.934a1.934,1.934,0,0,0-3.867,0v.645H1.966A1.968,1.968,0,0,0,0,4.544V28.456a1.968,1.968,0,0,0,1.966,1.966h8.785a.645.645,0,0,0,0-1.289H1.966a.678.678,0,0,1-.677-.677V4.544a.678.678,0,0,1,.677-.677H6.639v.645a1.934,1.934,0,0,0,3.867,0V3.867H20.947v.645a1.934,1.934,0,0,0,3.867,0V3.867h4.673a.678.678,0,0,1,.677.677v3.19H5.8a.645.645,0,0,0,0,1.289H30.164v12.79a6.025,6.025,0,0,0-1.8-.763V11.473a.645.645,0,0,0-.645-.645H3.738a.645.645,0,0,0-.645.645V26.684a.645.645,0,0,0,.645.645H20.9a6.013,6.013,0,0,0,.4,1.8H15.907a.645.645,0,1,0,0,1.289h6.078A6.056,6.056,0,1,0,31.453,22.9ZM9.217,4.512a.645.645,0,0,1-1.289,0V1.934a.645.645,0,0,1,1.289,0Zm14.309,0a.645.645,0,0,1-1.289,0V1.934a.645.645,0,0,1,1.289,0Zm3.416,16.371a6.084,6.084,0,0,0-.882.064H23.564V17.209H27.07v3.675ZM20.95,26.039H18.769v-3.8h3.506v.845A6.036,6.036,0,0,0,20.95,26.039ZM4.383,17.209H7.889v3.738H4.383Zm4.8,0h3.506v3.738H9.178Zm9.591,0h3.506v3.738H18.769ZM17.48,20.947H13.973V17.209H17.48Zm1.289-5.027v-3.8h3.506v3.8Zm-1.289,0H13.973v-3.8H17.48Zm-4.8,0H9.178v-3.8h3.506Zm0,6.316v3.8H9.178v-3.8Zm1.289,0H17.48v3.8H13.973v-3.8Zm13.1-6.316H23.564v-3.8H27.07Zm-19.181-3.8v3.8H4.383v-3.8ZM4.383,22.236H7.889v3.8H4.383Zm22.559,9.475a4.77,4.77,0,1,1,4.77-4.77A4.775,4.775,0,0,1,26.941,31.711Z" fill="#2a2d74"/>
        <path id="XMLID_1115_" d="M389.147,391.022l-1.993,1.993-.887-.887a.645.645,0,0,0-.912.911l1.343,1.343a.645.645,0,0,0,.911,0l2.449-2.449a.645.645,0,1,0-.911-.911Z" transform="translate(-360.341 -365.643)" fill="#2a2d74"/>
        <path id="XMLID_1116_" d="M197.445,452a.645.645,0,1,0,.456.189A.649.649,0,0,0,197.445,452Z" transform="translate(-184.116 -422.867)" fill="#2a2d74"/>
        <path id="XMLID_1120_" d="M41.1,121.1a.644.644,0,1,0-.456.189A.649.649,0,0,0,41.1,121.1Z" transform="translate(-37.422 -112.266)" fill="#2a2d74"/>
      </g>
    </g>
  </g>
</svg>
