<svg id="_4th-quater-icon" data-name="4th-quater-icon" xmlns="http://www.w3.org/2000/svg" width="75" height="75" viewBox="0 0 75 75">
  <path id="Path_37" data-name="Path 37" d="M37.5,0A37.5,37.5,0,1,1,0,37.5,37.5,37.5,0,0,1,37.5,0Z" fill="#2a2d74"/>
  <g id="treadmill_1_" data-name="treadmill (1)" transform="translate(23 23)">
    <g id="Group_1308" data-name="Group 1308">
      <g id="Group_1307" data-name="Group 1307">
        <path id="Path_985" data-name="Path 985" d="M28.679,26.529a4.13,4.13,0,0,0,1.3-3.016c0-.486-1.756-10.029-1.756-10.029,0-.669,0-8.982,0-8.99a1.753,1.753,0,0,0-2.342-1.637V1.22A1.221,1.221,0,0,0,24.664,0H23a1.221,1.221,0,0,0-1.22,1.22V8.033A1.221,1.221,0,0,0,23,9.253h1.708V10.6l-5.952,0A1.733,1.733,0,0,0,17.1,12.353a1.714,1.714,0,0,0,1.663,1.754l5.987,0,.951,5.23L2.867,21.749l-.022,0C.493,22.091,0,23.539,0,24.693a2.947,2.947,0,0,0,.823,2.046,1.756,1.756,0,0,0,.934,3.244h26.47a1.757,1.757,0,0,0,.452-3.454Zm-3.966-18.5H22.956V1.22h1.757Zm3.54,12.027a2.444,2.444,0,0,0-1.339-.6s-.973-5.347-.973-5.347h1.208ZM25.89,4.494a.578.578,0,0,1,.584-.569.588.588,0,0,1,.582.567l0,6.113H25.885Zm-7.125,8.442a.545.545,0,0,1-.492-.584.562.562,0,0,1,.49-.582l8.293.005v1.166ZM3,22.913,25.913,20.5a2.977,2.977,0,0,1,2.9,3.016,2.946,2.946,0,0,1-2.928,2.957H2.928a1.769,1.769,0,0,1-1.757-1.776C1.171,23.945,1.389,23.148,3,22.913Zm25.226,5.9H1.757a.586.586,0,0,1,0-1.171h26.47a.586.586,0,0,1,0,1.171Z" fill="#fff"/>
      </g>
    </g>
    <g id="Group_1310" data-name="Group 1310" transform="translate(24.037 21.709)">
      <g id="Group_1309" data-name="Group 1309">
        <path id="Path_986" data-name="Path 986" d="M412.233,370.713h-.009a1.757,1.757,0,0,0-.011,3.514h.009a1.76,1.76,0,0,0,1.758-1.748A1.78,1.78,0,0,0,412.233,370.713Zm-.011,2.342h0a.6.6,0,0,1-.582-.588.588.588,0,0,1,.587-.583h0a.6.6,0,0,1,.582.588A.587.587,0,0,1,412.222,373.055Z" transform="translate(-410.466 -370.713)" fill="#fff"/>
      </g>
    </g>
    <g id="Group_1312" data-name="Group 1312" transform="translate(4.583 24.068)">
      <g id="Group_1311" data-name="Group 1311">
        <path id="Path_987" data-name="Path 987" d="M79.426,411.511a.6.6,0,0,0-.637-.529.576.576,0,0,0-.333,1.01.581.581,0,0,0,.387.159l.055,0A.6.6,0,0,0,79.426,411.511Z" transform="translate(-78.258 -410.98)" fill="#fff"/>
      </g>
    </g>
    <g id="Group_1314" data-name="Group 1314" transform="translate(6.915 22.487)">
      <g id="Group_1313" data-name="Group 1313">
        <path id="Path_988" data-name="Path 988" d="M133.835,384.53A.594.594,0,0,0,133.2,384l-14.577,1.362a.6.6,0,0,0-.528.637.582.582,0,0,0,.2.373.589.589,0,0,0,.442.156l14.576-1.362A.587.587,0,0,0,133.835,384.53Z" transform="translate(-118.09 -383.999)" fill="#fff"/>
      </g>
    </g>
  </g>
</svg>
