<svg xmlns="http://www.w3.org/2000/svg" width="16" height="13.124" viewBox="0 0 16 13.124">
  <g id="white-arrow-icon" transform="translate(16 -41.905) rotate(90)">
    <g id="Group_43" data-name="Group 43" transform="translate(41.905 0)">
      <path id="Path_33" data-name="Path 33" d="M54.75,5.865l-.005-.005L49.151.259A.871.871,0,0,0,49,.142L48.844.054l-.11-.037h-.081a1.033,1.033,0,0,0-.373,0h-.161l-.124.066a.886.886,0,0,0-.19.139L42.188,5.86a.959.959,0,0,0-.005,1.356l.005.005a.981.981,0,0,0,1.354,0l3.346-3.339a.366.366,0,0,1,.622.256v10.9a.959.959,0,0,0,1.918,0h0V4.139a.366.366,0,0,1,.622-.256l3.331,3.339a.981.981,0,0,0,1.362,0A.959.959,0,0,0,54.75,5.865Z" transform="translate(-41.905 0)" fill="#fff"/>
    </g>
  </g>
</svg>
